<svg width="71" height="73" viewBox="0 0 71 73" fill="none" xmlns="http://www.w3.org/2000/svg">
<g filter="url(#filter0_d_1_35)">
<path fill-rule="evenodd" clip-rule="evenodd" d="M64.5 6.5V64.5H7.5V6.5H64.5Z" fill="url(#paint0_linear_1_35)"/>
<path fill-rule="evenodd" clip-rule="evenodd" d="M64.5 6.5V64.5H7.5V6.5H64.5Z" stroke="#FCFCFC"/>
</g>
<path fill-rule="evenodd" clip-rule="evenodd" d="M12 11.5V59.5H60V11.5H12Z" fill="url(#paint1_linear_1_35)"/>
<g filter="url(#filter1_d_1_35)">
<path d="M24.7337 20.5H17L29.603 40.699L33.6131 34.9279L24.7337 20.5Z" fill="white"/>
<path d="M55.6683 20.7886L47.9347 20.5L33.0402 46.4701L35.9045 51.0871L37.0503 51.3756L55.6683 20.7886Z" fill="white"/>
<path d="M24.7337 20.5H17L29.603 40.699L33.6131 34.9279L24.7337 20.5Z" stroke="white"/>
<path d="M55.6683 20.7886L47.9347 20.5L33.0402 46.4701L35.9045 51.0871L37.0503 51.3756L55.6683 20.7886Z" stroke="white"/>
</g>
<defs>
<filter id="filter0_d_1_35" x="3.5" y="6.5" width="65" height="66" filterUnits="userSpaceOnUse" color-interpolation-filters="sRGB">
<feFlood flood-opacity="0" result="BackgroundImageFix"/>
<feColorMatrix in="SourceAlpha" type="matrix" values="0 0 0 0 0 0 0 0 0 0 0 0 0 0 0 0 0 0 127 0" result="hardAlpha"/>
<feOffset dy="4"/>
<feGaussianBlur stdDeviation="2"/>
<feComposite in2="hardAlpha" operator="out"/>
<feColorMatrix type="matrix" values="0 0 0 0 0 0 0 0 0 0 0 0 0 0 0 0 0 0 0.25 0"/>
<feBlend mode="normal" in2="BackgroundImageFix" result="effect1_dropShadow_1_35"/>
<feBlend mode="normal" in="SourceGraphic" in2="effect1_dropShadow_1_35" result="shape"/>
</filter>
<filter id="filter1_d_1_35" x="12.0987" y="19.9891" width="48.4398" height="39.9614" filterUnits="userSpaceOnUse" color-interpolation-filters="sRGB">
<feFlood flood-opacity="0" result="BackgroundImageFix"/>
<feColorMatrix in="SourceAlpha" type="matrix" values="0 0 0 0 0 0 0 0 0 0 0 0 0 0 0 0 0 0 127 0" result="hardAlpha"/>
<feOffset dy="4"/>
<feGaussianBlur stdDeviation="2"/>
<feComposite in2="hardAlpha" operator="out"/>
<feColorMatrix type="matrix" values="0 0 0 0 0 0 0 0 0 0 0 0 0 0 0 0 0 0 0.25 0"/>
<feBlend mode="normal" in2="BackgroundImageFix" result="effect1_dropShadow_1_35"/>
<feBlend mode="normal" in="SourceGraphic" in2="effect1_dropShadow_1_35" result="shape"/>
</filter>
<linearGradient id="paint0_linear_1_35" x1="36" y1="64.5" x2="36" y2="6.5" gradientUnits="userSpaceOnUse">
<stop stop-color="#1B023D"/>
<stop offset="1" stop-color="#533082"/>
</linearGradient>
<linearGradient id="paint1_linear_1_35" x1="36" y1="59.5" x2="36" y2="11.5" gradientUnits="userSpaceOnUse">
<stop stop-color="#1B023D"/>
<stop offset="1" stop-color="#533082"/>
</linearGradient>
</defs>
</svg>
