<svg width="600" height="150" viewBox="0 0 600 150" fill="none" xmlns="http://www.w3.org/2000/svg">
<rect width="600" height="150" fill="white"/>
<rect width="376" height="100" transform="translate(73.5 25)" fill="white"/>
<path d="M87.3409 57.0909L95.7784 83.6136H96.1023L104.557 57.0909H112.739L100.705 92H91.1932L79.142 57.0909H87.3409ZM116.804 92V65.8182H124.065V92H116.804ZM120.452 62.4432C119.372 62.4432 118.446 62.0852 117.673 61.3693C116.912 60.642 116.531 59.7727 116.531 58.7614C116.531 57.7614 116.912 56.9034 117.673 56.1875C118.446 55.4602 119.372 55.0966 120.452 55.0966C121.531 55.0966 122.452 55.4602 123.213 56.1875C123.986 56.9034 124.372 57.7614 124.372 58.7614C124.372 59.7727 123.986 60.642 123.213 61.3693C122.452 62.0852 121.531 62.4432 120.452 62.4432ZM130.018 92V57.0909H137.28V70.2159H137.501C137.82 69.5114 138.28 68.7955 138.882 68.0682C139.496 67.3295 140.291 66.7159 141.268 66.2273C142.257 65.7273 143.484 65.4773 144.95 65.4773C146.859 65.4773 148.621 65.9773 150.234 66.9773C151.848 67.9659 153.138 69.4602 154.104 71.4602C155.07 73.4489 155.553 75.9432 155.553 78.9432C155.553 81.8636 155.081 84.3295 154.138 86.3409C153.206 88.3409 151.933 89.858 150.32 90.892C148.717 91.9148 146.922 92.4261 144.933 92.4261C143.524 92.4261 142.325 92.1932 141.337 91.7273C140.359 91.2614 139.558 90.6761 138.933 89.9716C138.308 89.2557 137.831 88.5341 137.501 87.8068H137.178V92H130.018ZM137.126 78.9091C137.126 80.4659 137.342 81.8239 137.774 82.983C138.206 84.142 138.831 85.0455 139.649 85.6932C140.467 86.3295 141.462 86.6477 142.632 86.6477C143.814 86.6477 144.814 86.3239 145.632 85.6761C146.45 85.017 147.07 84.108 147.49 82.9489C147.922 81.7784 148.138 80.4318 148.138 78.9091C148.138 77.3977 147.928 76.0682 147.507 74.9205C147.087 73.7727 146.467 72.875 145.649 72.2273C144.831 71.5795 143.825 71.2557 142.632 71.2557C141.45 71.2557 140.45 71.5682 139.632 72.1932C138.825 72.8182 138.206 73.7045 137.774 74.8523C137.342 76 137.126 77.3523 137.126 78.9091ZM160.398 92V65.8182H167.438V70.3864H167.71C168.188 68.7614 168.989 67.5341 170.114 66.7045C171.239 65.8636 172.534 65.4432 174 65.4432C174.364 65.4432 174.756 65.4659 175.176 65.5114C175.597 65.5568 175.966 65.6193 176.284 65.6989V72.142C175.943 72.0398 175.472 71.9489 174.869 71.8693C174.267 71.7898 173.716 71.75 173.216 71.75C172.148 71.75 171.193 71.983 170.352 72.4489C169.523 72.9034 168.864 73.5398 168.375 74.358C167.898 75.1761 167.659 76.1193 167.659 77.1875V92H160.398ZM186.754 92.4943C185.084 92.4943 183.595 92.2045 182.288 91.625C180.982 91.0341 179.947 90.1648 179.186 89.017C178.436 87.858 178.061 86.4148 178.061 84.6875C178.061 83.233 178.328 82.0114 178.862 81.0227C179.396 80.0341 180.124 79.2386 181.044 78.6364C181.964 78.0341 183.01 77.5795 184.18 77.2727C185.362 76.9659 186.601 76.75 187.896 76.625C189.419 76.4659 190.646 76.3182 191.578 76.1818C192.51 76.0341 193.186 75.8182 193.607 75.5341C194.027 75.25 194.237 74.8295 194.237 74.2727V74.1705C194.237 73.0909 193.896 72.2557 193.214 71.6648C192.544 71.0739 191.589 70.7784 190.351 70.7784C189.044 70.7784 188.004 71.0682 187.232 71.6477C186.459 72.2159 185.947 72.9318 185.697 73.7955L178.982 73.25C179.322 71.6591 179.993 70.2841 180.993 69.125C181.993 67.9545 183.283 67.0568 184.862 66.4318C186.453 65.7955 188.294 65.4773 190.385 65.4773C191.839 65.4773 193.232 65.6477 194.561 65.9886C195.902 66.3295 197.089 66.858 198.124 67.5739C199.169 68.2898 199.993 69.2102 200.595 70.3352C201.197 71.4489 201.499 72.7841 201.499 74.3409V92H194.612V88.3693H194.408C193.987 89.1875 193.425 89.9091 192.72 90.5341C192.016 91.1477 191.169 91.6307 190.18 91.983C189.192 92.3239 188.05 92.4943 186.754 92.4943ZM188.834 87.483C189.902 87.483 190.845 87.2727 191.663 86.8523C192.482 86.4205 193.124 85.8409 193.589 85.1136C194.055 84.3864 194.288 83.5625 194.288 82.642V79.8636C194.061 80.0114 193.749 80.1477 193.351 80.2727C192.964 80.3864 192.527 80.4943 192.038 80.5966C191.55 80.6875 191.061 80.7727 190.572 80.8523C190.084 80.9205 189.641 80.983 189.243 81.0398C188.391 81.1648 187.646 81.3636 187.01 81.6364C186.374 81.9091 185.879 82.2784 185.527 82.7443C185.175 83.1989 184.999 83.767 184.999 84.4489C184.999 85.4375 185.357 86.1932 186.072 86.7159C186.8 87.2273 187.72 87.483 188.834 87.483ZM214.393 76.8636V92H207.132V65.8182H214.053V70.4375H214.359C214.939 68.9148 215.911 67.7102 217.274 66.8239C218.638 65.9261 220.291 65.4773 222.234 65.4773C224.053 65.4773 225.638 65.875 226.99 66.6705C228.342 67.4659 229.393 68.6023 230.143 70.0795C230.893 71.5455 231.268 73.2955 231.268 75.3295V92H224.007V76.625C224.018 75.0227 223.609 73.7727 222.78 72.875C221.95 71.9659 220.808 71.5114 219.354 71.5114C218.376 71.5114 217.513 71.7216 216.763 72.142C216.024 72.5625 215.445 73.1761 215.024 73.983C214.615 74.7784 214.405 75.7386 214.393 76.8636ZM236.991 92V65.8182H244.253V92H236.991ZM240.639 62.4432C239.56 62.4432 238.634 62.0852 237.861 61.3693C237.099 60.642 236.719 59.7727 236.719 58.7614C236.719 57.7614 237.099 56.9034 237.861 56.1875C238.634 55.4602 239.56 55.0966 240.639 55.0966C241.719 55.0966 242.639 55.4602 243.401 56.1875C244.173 56.9034 244.56 57.7614 244.56 58.7614C244.56 59.7727 244.173 60.642 243.401 61.3693C242.639 62.0852 241.719 62.4432 240.639 62.4432ZM266.859 80.8523V65.8182H274.121V92H267.149V87.2443H266.876C266.286 88.7784 265.303 90.0114 263.928 90.9432C262.564 91.875 260.899 92.3409 258.933 92.3409C257.183 92.3409 255.643 91.9432 254.314 91.1477C252.984 90.3523 251.945 89.2216 251.195 87.7557C250.456 86.2898 250.081 84.5341 250.07 82.4886V65.8182H257.331V81.1932C257.342 82.7386 257.757 83.9602 258.575 84.858C259.393 85.7557 260.49 86.2045 261.865 86.2045C262.74 86.2045 263.558 86.0057 264.32 85.608C265.081 85.1989 265.695 84.5966 266.161 83.8011C266.638 83.0057 266.871 82.0227 266.859 80.8523ZM279.929 92V65.8182H286.849V70.4375H287.156C287.702 68.9034 288.611 67.6932 289.884 66.8068C291.156 65.9205 292.679 65.4773 294.452 65.4773C296.247 65.4773 297.776 65.9261 299.037 66.8239C300.298 67.7102 301.139 68.9148 301.56 70.4375H301.832C302.366 68.9375 303.332 67.7386 304.73 66.8409C306.139 65.9318 307.804 65.4773 309.724 65.4773C312.168 65.4773 314.151 66.2557 315.673 67.8125C317.207 69.358 317.974 71.5511 317.974 74.392V92H310.73V75.8239C310.73 74.3693 310.344 73.2784 309.571 72.5511C308.798 71.8239 307.832 71.4602 306.673 71.4602C305.355 71.4602 304.327 71.8807 303.588 72.7216C302.849 73.5511 302.48 74.6477 302.48 76.0114V92H295.44V75.6705C295.44 74.3864 295.071 73.3636 294.332 72.6023C293.605 71.8409 292.645 71.4602 291.452 71.4602C290.645 71.4602 289.918 71.6648 289.27 72.0739C288.634 72.4716 288.128 73.0341 287.753 73.7614C287.378 74.4773 287.19 75.3182 287.19 76.2841V92H279.929ZM334.956 92V57.0909H342.337V85.9148H357.303V92H334.956ZM369.52 92.4943C367.849 92.4943 366.361 92.2045 365.054 91.625C363.747 91.0341 362.713 90.1648 361.952 89.017C361.202 87.858 360.827 86.4148 360.827 84.6875C360.827 83.233 361.094 82.0114 361.628 81.0227C362.162 80.0341 362.889 79.2386 363.81 78.6364C364.73 78.0341 365.776 77.5795 366.946 77.2727C368.128 76.9659 369.366 76.75 370.662 76.625C372.185 76.4659 373.412 76.3182 374.344 76.1818C375.276 76.0341 375.952 75.8182 376.372 75.5341C376.793 75.25 377.003 74.8295 377.003 74.2727V74.1705C377.003 73.0909 376.662 72.2557 375.98 71.6648C375.31 71.0739 374.355 70.7784 373.116 70.7784C371.81 70.7784 370.77 71.0682 369.997 71.6477C369.224 72.2159 368.713 72.9318 368.463 73.7955L361.747 73.25C362.088 71.6591 362.759 70.2841 363.759 69.125C364.759 67.9545 366.048 67.0568 367.628 66.4318C369.219 65.7955 371.06 65.4773 373.151 65.4773C374.605 65.4773 375.997 65.6477 377.327 65.9886C378.668 66.3295 379.855 66.858 380.889 67.5739C381.935 68.2898 382.759 69.2102 383.361 70.3352C383.963 71.4489 384.264 72.7841 384.264 74.3409V92H377.378V88.3693H377.173C376.753 89.1875 376.19 89.9091 375.486 90.5341C374.781 91.1477 373.935 91.6307 372.946 91.983C371.957 92.3239 370.815 92.4943 369.52 92.4943ZM371.599 87.483C372.668 87.483 373.611 87.2727 374.429 86.8523C375.247 86.4205 375.889 85.8409 376.355 85.1136C376.821 84.3864 377.054 83.5625 377.054 82.642V79.8636C376.827 80.0114 376.514 80.1477 376.116 80.2727C375.73 80.3864 375.293 80.4943 374.804 80.5966C374.315 80.6875 373.827 80.7727 373.338 80.8523C372.849 80.9205 372.406 80.983 372.009 81.0398C371.156 81.1648 370.412 81.3636 369.776 81.6364C369.139 81.9091 368.645 82.2784 368.293 82.7443C367.94 83.1989 367.764 83.767 367.764 84.4489C367.764 85.4375 368.122 86.1932 368.838 86.7159C369.565 87.2273 370.486 87.483 371.599 87.483ZM399.545 92.4261C397.557 92.4261 395.756 91.9148 394.142 90.892C392.54 89.858 391.267 88.3409 390.324 86.3409C389.392 84.3295 388.926 81.8636 388.926 78.9432C388.926 75.9432 389.409 73.4489 390.375 71.4602C391.341 69.4602 392.625 67.9659 394.227 66.9773C395.841 65.9773 397.608 65.4773 399.528 65.4773C400.994 65.4773 402.216 65.7273 403.193 66.2273C404.182 66.7159 404.977 67.3295 405.58 68.0682C406.193 68.7955 406.659 69.5114 406.977 70.2159H407.199V57.0909H414.443V92H407.284V87.8068H406.977C406.636 88.5341 406.153 89.2557 405.528 89.9716C404.915 90.6761 404.114 91.2614 403.125 91.7273C402.148 92.1932 400.955 92.4261 399.545 92.4261ZM401.847 86.6477C403.017 86.6477 404.006 86.3295 404.812 85.6932C405.631 85.0455 406.256 84.142 406.688 82.983C407.131 81.8239 407.352 80.4659 407.352 78.9091C407.352 77.3523 407.136 76 406.705 74.8523C406.273 73.7045 405.648 72.8182 404.83 72.1932C404.011 71.5682 403.017 71.2557 401.847 71.2557C400.653 71.2557 399.648 71.5795 398.83 72.2273C398.011 72.875 397.392 73.7727 396.972 74.9205C396.551 76.0682 396.341 77.3977 396.341 78.9091C396.341 80.4318 396.551 81.7784 396.972 82.9489C397.403 84.108 398.023 85.017 398.83 85.6761C399.648 86.3239 400.653 86.6477 401.847 86.6477ZM442.197 73.2841L435.55 73.6932C435.436 73.125 435.192 72.6136 434.817 72.1591C434.442 71.6932 433.947 71.3239 433.334 71.0511C432.732 70.767 432.01 70.625 431.169 70.625C430.044 70.625 429.095 70.8636 428.322 71.3409C427.55 71.8068 427.163 72.4318 427.163 73.2159C427.163 73.8409 427.413 74.3693 427.913 74.8011C428.413 75.233 429.271 75.5795 430.487 75.8409L435.226 76.7955C437.771 77.3182 439.669 78.1591 440.919 79.3182C442.169 80.4773 442.794 82 442.794 83.8864C442.794 85.6023 442.288 87.108 441.277 88.4034C440.277 89.6989 438.902 90.7102 437.152 91.4375C435.413 92.1534 433.408 92.5114 431.135 92.5114C427.669 92.5114 424.908 91.7898 422.851 90.3466C420.805 88.892 419.607 86.9148 419.254 84.4148L426.396 84.0398C426.612 85.0966 427.135 85.9034 427.964 86.4602C428.794 87.0057 429.857 87.2784 431.152 87.2784C432.425 87.2784 433.447 87.0341 434.22 86.5455C435.004 86.0455 435.402 85.4034 435.413 84.6193C435.402 83.9602 435.124 83.4205 434.578 83C434.033 82.5682 433.192 82.2386 432.055 82.0114L427.521 81.108C424.964 80.5966 423.061 79.7102 421.811 78.4489C420.572 77.1875 419.953 75.5795 419.953 73.625C419.953 71.9432 420.408 70.4943 421.317 69.2784C422.237 68.0625 423.527 67.125 425.186 66.4659C426.857 65.8068 428.811 65.4773 431.05 65.4773C434.357 65.4773 436.959 66.1761 438.857 67.5739C440.766 68.9716 441.879 70.875 442.197 73.2841Z" fill="url(#paint0_linear_2_40)"/>
<path d="M87.3409 57.0909L87.476 57.0479L87.4446 56.9491H87.3409V57.0909ZM95.7784 83.6136L95.6433 83.6566L95.6747 83.7554H95.7784V83.6136ZM96.1023 83.6136V83.7554H96.2059L96.2374 83.6567L96.1023 83.6136ZM104.557 57.0909V56.9491H104.453L104.422 57.0478L104.557 57.0909ZM112.739 57.0909L112.873 57.1371L112.937 56.9491H112.739V57.0909ZM100.705 92V92.1418H100.806L100.839 92.0462L100.705 92ZM91.1932 92L91.0592 92.0463L91.0921 92.1418H91.1932V92ZM79.142 57.0909V56.9491H78.9431L79.008 57.1372L79.142 57.0909ZM87.3409 57.0909L87.2058 57.1339L95.6433 83.6566L95.7784 83.6136L95.9135 83.5707L87.476 57.0479L87.3409 57.0909ZM95.7784 83.6136V83.7554H96.1023V83.6136V83.4718H95.7784V83.6136ZM96.1023 83.6136L96.2374 83.6567L104.692 57.134L104.557 57.0909L104.422 57.0478L95.9672 83.5706L96.1023 83.6136ZM104.557 57.0909V57.2327H112.739V57.0909V56.9491H104.557V57.0909ZM112.739 57.0909L112.605 57.0447L100.57 91.9538L100.705 92L100.839 92.0462L112.873 57.1371L112.739 57.0909ZM100.705 92V91.8582H91.1932V92V92.1418H100.705V92ZM91.1932 92L91.3272 91.9537L79.2761 57.0446L79.142 57.0909L79.008 57.1372L91.0592 92.0463L91.1932 92ZM79.142 57.0909V57.2327H87.3409V57.0909V56.9491H79.142V57.0909ZM116.804 92H116.662V92.1418H116.804V92ZM116.804 65.8182V65.6764H116.662V65.8182H116.804ZM124.065 65.8182H124.207V65.6764H124.065V65.8182ZM124.065 92V92.1418H124.207V92H124.065ZM117.673 61.3693L117.575 61.4719L117.577 61.4733L117.673 61.3693ZM117.673 56.1875L117.77 56.2908L117.77 56.2908L117.673 56.1875ZM123.213 56.1875L123.115 56.29L123.117 56.2915L123.213 56.1875ZM123.213 61.3693L123.31 61.4726L123.31 61.4726L123.213 61.3693ZM116.804 92H116.946V65.8182H116.804H116.662V92H116.804ZM116.804 65.8182V65.96H124.065V65.8182V65.6764H116.804V65.8182ZM124.065 65.8182H123.924V92H124.065H124.207V65.8182H124.065ZM124.065 92V91.8582H116.804V92V92.1418H124.065V92ZM120.452 62.4432V62.3014C119.407 62.3014 118.515 61.9563 117.77 61.2653L117.673 61.3693L117.577 61.4733C118.377 62.2142 119.337 62.585 120.452 62.585V62.4432ZM117.673 61.3693L117.771 61.2668C117.037 60.565 116.673 59.7322 116.673 58.7614H116.531H116.389C116.389 59.8132 116.787 60.7191 117.575 61.4718L117.673 61.3693ZM116.531 58.7614H116.673C116.673 57.8024 117.036 56.9813 117.77 56.2908L117.673 56.1875L117.576 56.0842C116.788 56.8255 116.389 57.7203 116.389 58.7614H116.531ZM117.673 56.1875L117.77 56.2908C118.516 55.5887 119.408 55.2384 120.452 55.2384V55.0966V54.9548C119.337 54.9548 118.376 55.3317 117.576 56.0842L117.673 56.1875ZM120.452 55.0966V55.2384C121.496 55.2384 122.381 55.5887 123.115 56.29L123.213 56.1875L123.311 56.085C122.523 55.3318 121.567 54.9548 120.452 54.9548V55.0966ZM123.213 56.1875L123.117 56.2915C123.862 56.9822 124.23 57.8032 124.23 58.7614H124.372H124.514C124.514 57.7196 124.109 56.8246 123.309 56.0835L123.213 56.1875ZM124.372 58.7614H124.23C124.23 59.7315 123.862 60.5641 123.116 61.2661L123.213 61.3693L123.31 61.4726C124.11 60.72 124.514 59.8139 124.514 58.7614H124.372ZM123.213 61.3693L123.116 61.266C122.382 61.9563 121.496 62.3014 120.452 62.3014V62.4432V62.585C121.566 62.585 122.522 62.2141 123.31 61.4726L123.213 61.3693ZM130.018 92H129.877V92.1418H130.018V92ZM130.018 57.0909V56.9491H129.877V57.0909H130.018ZM137.28 57.0909H137.422V56.9491H137.28V57.0909ZM137.28 70.2159H137.138V70.3577H137.28V70.2159ZM137.501 70.2159V70.3577H137.593L137.631 70.2743L137.501 70.2159ZM138.882 68.0682L138.773 67.9776L138.773 67.9777L138.882 68.0682ZM141.268 66.2273L141.332 66.3541L141.332 66.3538L141.268 66.2273ZM150.234 66.9773L150.16 67.0978L150.16 67.0982L150.234 66.9773ZM154.104 71.4602L153.976 71.5219L153.976 71.5222L154.104 71.4602ZM154.138 86.3409L154.009 86.2807L154.009 86.281L154.138 86.3409ZM150.32 90.892L150.396 91.0116L150.396 91.0114L150.32 90.892ZM141.337 91.7273L141.276 91.8553L141.276 91.8555L141.337 91.7273ZM138.933 89.9716L138.826 90.0648L138.827 90.0657L138.933 89.9716ZM137.501 87.8068L137.631 87.7483L137.593 87.665H137.501V87.8068ZM137.178 87.8068V87.665H137.036V87.8068H137.178ZM137.178 92V92.1418H137.319V92H137.178ZM139.649 85.6932L139.561 85.8044L139.562 85.8051L139.649 85.6932ZM145.632 85.6761L145.72 85.7873L145.721 85.7866L145.632 85.6761ZM147.49 82.9489L147.357 82.8998L147.357 82.9005L147.49 82.9489ZM147.507 74.9205L147.64 74.8717L147.64 74.8717L147.507 74.9205ZM145.649 72.2273L145.737 72.1161L145.737 72.1161L145.649 72.2273ZM139.632 72.1932L139.546 72.0805L139.545 72.0811L139.632 72.1932ZM137.774 74.8523L137.641 74.8023L137.641 74.8023L137.774 74.8523ZM130.018 92H130.16V57.0909H130.018H129.877V92H130.018ZM130.018 57.0909V57.2327H137.28V57.0909V56.9491H130.018V57.0909ZM137.28 57.0909H137.138V70.2159H137.28H137.422V57.0909H137.28ZM137.28 70.2159V70.3577H137.501V70.2159V70.0741H137.28V70.2159ZM137.501 70.2159L137.631 70.2743C137.943 69.5835 138.395 68.8782 138.991 68.1586L138.882 68.0682L138.773 67.9777C138.164 68.7127 137.697 69.4393 137.372 70.1575L137.501 70.2159ZM138.882 68.0682L138.991 68.1588C139.591 67.4372 140.37 66.8352 141.332 66.3541L141.268 66.2273L141.205 66.1005C140.213 66.5967 139.401 67.2219 138.773 67.9776L138.882 68.0682ZM141.268 66.2273L141.332 66.3538C142.296 65.8665 143.5 65.6191 144.95 65.6191V65.4773V65.3355C143.469 65.3355 142.218 65.588 141.204 66.1007L141.268 66.2273ZM144.95 65.4773V65.6191C146.833 65.6191 148.569 66.1118 150.16 67.0978L150.234 66.9773L150.309 66.8567C148.673 65.8428 146.886 65.3355 144.95 65.3355V65.4773ZM150.234 66.9773L150.16 67.0982C151.747 68.0703 153.02 69.542 153.976 71.5219L154.104 71.4602L154.231 71.3986C153.256 69.3784 151.949 67.8615 150.308 66.8564L150.234 66.9773ZM154.104 71.4602L153.976 71.5222C154.93 73.4859 155.411 75.9574 155.411 78.9432H155.553H155.694C155.694 75.929 155.209 73.4118 154.231 71.3983L154.104 71.4602ZM155.553 78.9432H155.411C155.411 81.8491 154.941 84.2931 154.009 86.2807L154.138 86.3409L154.266 86.4011C155.22 84.366 155.694 81.8782 155.694 78.9432H155.553ZM154.138 86.3409L154.009 86.281C153.087 88.2604 151.831 89.7552 150.243 90.7727L150.32 90.892L150.396 91.0114C152.036 89.9607 153.325 88.4214 154.266 86.4008L154.138 86.3409ZM150.32 90.892L150.243 90.7725C148.665 91.78 146.896 92.2843 144.933 92.2843V92.4261V92.5679C146.948 92.5679 148.77 92.0495 150.396 91.0116L150.32 90.892ZM144.933 92.4261V92.2843C143.539 92.2843 142.362 92.0538 141.397 91.599L141.337 91.7273L141.276 91.8555C142.288 92.3325 143.509 92.5679 144.933 92.5679V92.4261ZM141.337 91.7273L141.398 91.5993C140.435 91.1403 139.65 90.5659 139.039 89.8775L138.933 89.9716L138.827 90.0657C139.467 90.7864 140.284 91.3824 141.276 91.8553L141.337 91.7273ZM138.933 89.9716L139.04 89.8783C138.422 89.1709 137.953 88.4608 137.631 87.7483L137.501 87.8068L137.372 87.8653C137.708 88.6073 138.194 89.3404 138.826 90.0648L138.933 89.9716ZM137.501 87.8068V87.665H137.178V87.8068V87.9486H137.501V87.8068ZM137.178 87.8068H137.036V92H137.178H137.319V87.8068H137.178ZM137.178 92V91.8582H130.018V92V92.1418H137.178V92ZM137.126 78.9091H136.985C136.985 80.4786 137.202 81.854 137.641 83.0325L137.774 82.983L137.907 82.9335C137.482 81.7937 137.268 80.4532 137.268 78.9091H137.126ZM137.774 82.983L137.641 83.0325C138.08 84.2113 138.719 85.1378 139.561 85.8044L139.649 85.6932L139.737 85.582C138.943 84.9531 138.331 84.0728 137.907 82.9335L137.774 82.983ZM139.649 85.6932L139.562 85.8051C140.408 86.4633 141.434 86.7895 142.632 86.7895V86.6477V86.5059C141.489 86.5059 140.526 86.1958 139.736 85.5813L139.649 85.6932ZM142.632 86.6477V86.7895C143.841 86.7895 144.874 86.4575 145.72 85.7873L145.632 85.6761L145.544 85.565C144.754 86.1903 143.786 86.5059 142.632 86.5059V86.6477ZM145.632 85.6761L145.721 85.7866C146.563 85.1086 147.196 84.1764 147.623 82.9972L147.49 82.9489L147.357 82.9005C146.944 84.0395 146.338 84.9255 145.543 85.5657L145.632 85.6761ZM147.49 82.9489L147.623 82.9979C148.062 81.8087 148.28 80.445 148.28 78.9091H148.138H147.996C147.996 80.4186 147.782 81.7481 147.357 82.8998L147.49 82.9489ZM148.138 78.9091H148.28C148.28 77.3849 148.068 76.0382 147.64 74.8717L147.507 74.9205L147.374 74.9692C147.788 76.0981 147.996 77.4106 147.996 78.9091H148.138ZM147.507 74.9205L147.64 74.8717C147.212 73.7037 146.579 72.7827 145.737 72.1161L145.649 72.2273L145.561 72.3384C146.356 72.9673 146.961 73.8418 147.374 74.9692L147.507 74.9205ZM145.649 72.2273L145.737 72.1161C144.89 71.4457 143.852 71.1139 142.632 71.1139V71.2557V71.3975C143.798 71.3975 144.772 71.7133 145.561 72.3384L145.649 72.2273ZM142.632 71.2557V71.1139C141.424 71.1139 140.392 71.4339 139.546 72.0805L139.632 72.1932L139.718 72.3059C140.508 71.7025 141.477 71.3975 142.632 71.3975V71.2557ZM139.632 72.1932L139.545 72.0811C138.714 72.7251 138.081 73.635 137.641 74.8023L137.774 74.8523L137.907 74.9022C138.331 73.7741 138.937 72.9112 139.719 72.3053L139.632 72.1932ZM137.774 74.8523L137.641 74.8023C137.202 75.9697 136.985 77.3396 136.985 78.9091H137.126H137.268C137.268 77.3649 137.482 76.0303 137.907 74.9022L137.774 74.8523ZM160.398 92H160.256V92.1418H160.398V92ZM160.398 65.8182V65.6764H160.256V65.8182H160.398ZM167.438 65.8182H167.579V65.6764H167.438V65.8182ZM167.438 70.3864H167.296V70.5282H167.438V70.3864ZM167.71 70.3864V70.5282H167.816L167.846 70.4263L167.71 70.3864ZM170.114 66.7045L170.198 66.8187L170.199 66.8181L170.114 66.7045ZM175.176 65.5114L175.191 65.3704L175.191 65.3704L175.176 65.5114ZM176.284 65.6989H176.426V65.5882L176.318 65.5613L176.284 65.6989ZM176.284 72.142L176.243 72.2779L176.426 72.3326V72.142H176.284ZM170.352 72.4489L170.42 72.5732L170.421 72.5729L170.352 72.4489ZM168.375 74.358L168.253 74.2852L168.253 74.2865L168.375 74.358ZM167.659 92V92.1418H167.801V92H167.659ZM160.398 92H160.54V65.8182H160.398H160.256V92H160.398ZM160.398 65.8182V65.96H167.438V65.8182V65.6764H160.398V65.8182ZM167.438 65.8182H167.296V70.3864H167.438H167.579V65.8182H167.438ZM167.438 70.3864V70.5282H167.71V70.3864V70.2446H167.438V70.3864ZM167.71 70.3864L167.846 70.4263C168.317 68.8246 169.103 67.6262 170.198 66.8187L170.114 66.7045L170.029 66.5904C168.875 67.442 168.058 68.6981 167.574 70.3464L167.71 70.3864ZM170.114 66.7045L170.199 66.8181C171.298 65.9964 172.563 65.585 174 65.585V65.4432V65.3014C172.505 65.3014 171.179 65.7309 170.029 66.591L170.114 66.7045ZM174 65.4432V65.585C174.358 65.585 174.745 65.6073 175.161 65.6523L175.176 65.5114L175.191 65.3704C174.767 65.3245 174.369 65.3014 174 65.3014V65.4432ZM175.176 65.5114L175.161 65.6523C175.577 65.6973 175.939 65.7588 176.25 65.8364L176.284 65.6989L176.318 65.5613C175.993 65.4798 175.617 65.4164 175.191 65.3704L175.176 65.5114ZM176.284 65.6989H176.142V72.142H176.284H176.426V65.6989H176.284ZM176.284 72.142L176.325 72.0062C175.973 71.9008 175.493 71.8087 174.888 71.7287L174.869 71.8693L174.851 72.0099C175.45 72.089 175.913 72.1788 176.243 72.2779L176.284 72.142ZM174.869 71.8693L174.888 71.7287C174.281 71.6486 173.723 71.6082 173.216 71.6082V71.75V71.8918C173.709 71.8918 174.253 71.931 174.851 72.0099L174.869 71.8693ZM173.216 71.75V71.6082C172.126 71.6082 171.148 71.846 170.284 72.3248L170.352 72.4489L170.421 72.5729C171.239 72.1199 172.169 71.8918 173.216 71.8918V71.75ZM170.352 72.4489L170.284 72.3245C169.432 72.7913 168.755 73.4456 168.253 74.2853L168.375 74.358L168.497 74.4307C168.973 73.634 169.613 73.0155 170.42 72.5732L170.352 72.4489ZM168.375 74.358L168.253 74.2865C167.761 75.129 167.517 76.0975 167.517 77.1875H167.659H167.801C167.801 76.1411 168.034 75.2232 168.497 74.4294L168.375 74.358ZM167.659 77.1875H167.517V92H167.659H167.801V77.1875H167.659ZM167.659 92V91.8582H160.398V92V92.1418H167.659V92ZM182.288 91.625L182.23 91.7542L182.231 91.7546L182.288 91.625ZM179.186 89.017L179.067 89.0941L179.068 89.0954L179.186 89.017ZM178.862 81.0227L178.737 80.9553L178.737 80.9553L178.862 81.0227ZM181.044 78.6364L180.966 78.5177L180.966 78.5177L181.044 78.6364ZM184.18 77.2727L184.145 77.1355L184.144 77.1356L184.18 77.2727ZM187.896 76.625L187.91 76.7661L187.911 76.766L187.896 76.625ZM191.578 76.1818L191.599 76.3221L191.6 76.3219L191.578 76.1818ZM193.607 75.5341L193.527 75.4166L193.527 75.4166L193.607 75.5341ZM193.214 71.6648L193.121 71.7711L193.122 71.7719L193.214 71.6648ZM187.232 71.6477L187.316 71.762L187.317 71.7612L187.232 71.6477ZM185.697 73.7955L185.686 73.9368L185.801 73.9462L185.834 73.8349L185.697 73.7955ZM178.982 73.25L178.843 73.2203L178.809 73.3782L178.97 73.3913L178.982 73.25ZM180.993 69.125L181.1 69.2176L181.101 69.2171L180.993 69.125ZM184.862 66.4318L184.914 66.5637L184.915 66.5635L184.862 66.4318ZM194.561 65.9886L194.526 66.126L194.526 66.1261L194.561 65.9886ZM198.124 67.5739L198.043 67.6904L198.043 67.6909L198.124 67.5739ZM200.595 70.3352L200.47 70.4021L200.47 70.4027L200.595 70.3352ZM201.499 92V92.1418H201.64V92H201.499ZM194.612 92H194.47V92.1418H194.612V92ZM194.612 88.3693H194.754V88.2275H194.612V88.3693ZM194.408 88.3693V88.2275H194.321L194.282 88.3045L194.408 88.3693ZM192.72 90.5341L192.813 90.641L192.814 90.6402L192.72 90.5341ZM190.18 91.983L190.227 92.117L190.228 92.1165L190.18 91.983ZM191.663 86.8523L191.728 86.9784L191.73 86.9777L191.663 86.8523ZM193.589 85.1136L193.47 85.0372L193.47 85.0372L193.589 85.1136ZM194.288 79.8636H194.43V79.6024L194.211 79.7448L194.288 79.8636ZM193.351 80.2727L193.391 80.4088L193.393 80.408L193.351 80.2727ZM192.038 80.5966L192.064 80.736L192.067 80.7354L192.038 80.5966ZM190.572 80.8523L190.592 80.9927L190.595 80.9922L190.572 80.8523ZM189.243 81.0398L189.223 80.8994L189.222 80.8995L189.243 81.0398ZM187.01 81.6364L187.066 81.7667L187.066 81.7667L187.01 81.6364ZM185.527 82.7443L185.639 82.8312L185.64 82.8298L185.527 82.7443ZM186.072 86.7159L185.989 86.8304L185.991 86.8319L186.072 86.7159ZM186.754 92.4943V92.3525C185.1 92.3525 183.632 92.0657 182.346 91.4954L182.288 91.625L182.231 91.7546C183.559 92.3434 185.067 92.6361 186.754 92.6361V92.4943ZM182.288 91.625L182.347 91.4958C181.063 90.9154 180.05 90.0632 179.304 88.9387L179.186 89.017L179.068 89.0954C179.845 90.2663 180.9 91.1528 182.23 91.7542L182.288 91.625ZM179.186 89.017L179.305 88.94C178.573 87.809 178.203 86.3943 178.203 84.6875H178.061H177.919C177.919 86.4353 178.299 87.9069 179.067 89.0941L179.186 89.017ZM178.061 84.6875H178.203C178.203 83.2498 178.467 82.0528 178.987 81.0901L178.862 81.0227L178.737 80.9553C178.189 81.9699 177.919 83.2162 177.919 84.6875H178.061ZM178.862 81.0227L178.987 81.0901C179.51 80.1218 180.221 79.3441 181.122 78.755L181.044 78.6364L180.966 78.5177C180.026 79.1332 179.283 79.9464 178.737 80.9553L178.862 81.0227ZM181.044 78.6364L181.122 78.755C182.028 78.1619 183.059 77.7132 184.216 77.4099L184.18 77.2727L184.144 77.1356C182.961 77.4459 181.901 77.9063 180.966 78.5177L181.044 78.6364ZM184.18 77.2727L184.216 77.41C185.39 77.1051 186.621 76.8905 187.91 76.7661L187.896 76.625L187.883 76.4839C186.58 76.6095 185.334 76.8267 184.145 77.1355L184.18 77.2727ZM187.896 76.625L187.911 76.766C189.435 76.6068 190.664 76.4589 191.599 76.3221L191.578 76.1818L191.558 76.0415C190.629 76.1775 189.403 76.325 187.882 76.484L187.896 76.625ZM191.578 76.1818L191.6 76.3219C192.538 76.1732 193.239 75.9534 193.686 75.6516L193.607 75.5341L193.527 75.4166C193.133 75.683 192.482 75.895 191.556 76.0418L191.578 76.1818ZM193.607 75.5341L193.686 75.6516C194.15 75.3382 194.379 74.8712 194.379 74.2727H194.237H194.095C194.095 74.7878 193.904 75.1618 193.527 75.4166L193.607 75.5341ZM194.237 74.2727H194.379V74.1705H194.237H194.095V74.2727H194.237ZM194.237 74.1705H194.379C194.379 73.0586 194.026 72.1808 193.307 71.5576L193.214 71.6648L193.122 71.7719C193.766 72.3306 194.095 73.1232 194.095 74.1705H194.237ZM193.214 71.6648L193.308 71.5584C192.603 70.9372 191.611 70.6366 190.351 70.6366V70.7784V70.9202C191.568 70.9202 192.485 71.2106 193.121 71.7711L193.214 71.6648ZM190.351 70.7784V70.6366C189.024 70.6366 187.951 70.9308 187.146 71.5343L187.232 71.6477L187.317 71.7612C188.057 71.2055 189.064 70.9202 190.351 70.9202V70.7784ZM187.232 71.6477L187.148 71.5335C186.351 72.1189 185.821 72.8603 185.561 73.756L185.697 73.7955L185.834 73.8349C186.074 73.0033 186.566 72.313 187.316 71.762L187.232 71.6477ZM185.697 73.7955L185.709 73.6541L178.993 73.1087L178.982 73.25L178.97 73.3913L185.686 73.9368L185.697 73.7955ZM178.982 73.25L179.12 73.2797C179.456 71.7106 180.117 70.3576 181.1 69.2176L180.993 69.125L180.886 69.0324C179.869 70.2106 179.188 71.6076 178.843 73.2203L178.982 73.25ZM180.993 69.125L181.101 69.2171C182.084 68.066 183.354 67.181 184.914 66.5637L184.862 66.4318L184.81 66.3C183.211 66.9326 181.902 67.8431 180.885 69.0329L180.993 69.125ZM184.862 66.4318L184.915 66.5635C186.486 65.9351 188.308 65.6191 190.385 65.6191V65.4773V65.3355C188.28 65.3355 186.42 65.6558 184.81 66.3002L184.862 66.4318ZM190.385 65.4773V65.6191C191.828 65.6191 193.208 65.7882 194.526 66.126L194.561 65.9886L194.596 65.8513C193.255 65.5073 191.851 65.3355 190.385 65.3355V65.4773ZM194.561 65.9886L194.526 66.1261C195.852 66.4632 197.024 66.9851 198.043 67.6904L198.124 67.5739L198.204 67.4573C197.155 66.7308 195.952 66.1959 194.596 65.8512L194.561 65.9886ZM198.124 67.5739L198.043 67.6909C199.07 68.3938 199.879 69.297 200.47 70.4021L200.595 70.3352L200.72 70.2683C200.107 69.1234 199.268 68.1857 198.204 67.4569L198.124 67.5739ZM200.595 70.3352L200.47 70.4027C201.059 71.4914 201.357 72.8023 201.357 74.3409H201.499H201.64C201.64 72.7659 201.336 71.4064 200.72 70.2678L200.595 70.3352ZM201.499 74.3409H201.357V92H201.499H201.64V74.3409H201.499ZM201.499 92V91.8582H194.612V92V92.1418H201.499V92ZM194.612 92H194.754V88.3693H194.612H194.47V92H194.612ZM194.612 88.3693V88.2275H194.408V88.3693V88.5111H194.612V88.3693ZM194.408 88.3693L194.282 88.3045C193.869 89.1067 193.318 89.8144 192.626 90.428L192.72 90.5341L192.814 90.6402C193.532 90.0038 194.105 89.2683 194.534 88.4341L194.408 88.3693ZM192.72 90.5341L192.627 90.4272C191.937 91.0278 191.107 91.5023 190.133 91.8494L190.18 91.983L190.228 92.1165C191.231 91.759 192.094 91.2676 192.813 90.641L192.72 90.5341ZM190.18 91.983L190.134 91.8489C189.163 92.1836 188.038 92.3525 186.754 92.3525V92.4943V92.6361C188.062 92.6361 189.22 92.4641 190.227 92.117L190.18 91.983ZM188.834 87.483V87.6247C189.921 87.6247 190.887 87.4107 191.728 86.9784L191.663 86.8523L191.599 86.7262C190.803 87.1348 189.883 87.3412 188.834 87.3412V87.483ZM191.663 86.8523L191.73 86.9777C192.568 86.5353 193.229 85.9395 193.709 85.1901L193.589 85.1136L193.47 85.0372C193.018 85.7423 192.395 86.3057 191.597 86.7269L191.663 86.8523ZM193.589 85.1136L193.709 85.1901C194.19 84.4385 194.43 83.5877 194.43 82.642H194.288H194.147C194.147 83.5373 193.92 84.3342 193.47 85.0372L193.589 85.1136ZM194.288 82.642H194.43V79.8636H194.288H194.147V82.642H194.288ZM194.288 79.8636L194.211 79.7448C193.999 79.8828 193.7 80.0145 193.308 80.1375L193.351 80.2727L193.393 80.408C193.798 80.281 194.123 80.14 194.366 79.9825L194.288 79.8636ZM193.351 80.2727L193.311 80.1367C192.929 80.2491 192.495 80.3561 192.009 80.4578L192.038 80.5966L192.067 80.7354C192.559 80.6325 193 80.5237 193.391 80.4088L193.351 80.2727ZM192.038 80.5966L192.012 80.4572C191.525 80.5479 191.037 80.633 190.55 80.7123L190.572 80.8523L190.595 80.9922C191.085 80.9125 191.575 80.8271 192.064 80.736L192.038 80.5966ZM190.572 80.8523L190.553 80.7118C190.064 80.78 189.621 80.8426 189.223 80.8994L189.243 81.0398L189.263 81.1801C189.66 81.1233 190.104 81.0609 190.592 80.9927L190.572 80.8523ZM189.243 81.0398L189.222 80.8995C188.361 81.0258 187.604 81.2275 186.954 81.506L187.01 81.6364L187.066 81.7667C187.689 81.4998 188.421 81.3037 189.263 81.1801L189.243 81.0398ZM187.01 81.6364L186.954 81.506C186.299 81.7867 185.784 82.1699 185.414 82.6588L185.527 82.7443L185.64 82.8298C185.975 82.3869 186.448 82.0315 187.066 81.7667L187.01 81.6364ZM185.527 82.7443L185.415 82.6575C185.04 83.1413 184.857 83.7416 184.857 84.4489H184.999H185.14C185.14 83.7924 185.309 83.2565 185.639 82.8312L185.527 82.7443ZM184.999 84.4489H184.857C184.857 85.4767 185.232 86.2776 185.989 86.8304L186.072 86.7159L186.156 86.6014C185.481 86.1087 185.14 85.3983 185.14 84.4489H184.999ZM186.072 86.7159L185.991 86.8319C186.747 87.3639 187.698 87.6247 188.834 87.6247V87.483V87.3412C187.742 87.3412 186.852 87.0907 186.154 86.5999L186.072 86.7159ZM214.393 76.8636L214.252 76.8622V76.8636H214.393ZM214.393 92V92.1418H214.535V92H214.393ZM207.132 92H206.99V92.1418H207.132V92ZM207.132 65.8182V65.6764H206.99V65.8182H207.132ZM214.053 65.8182H214.194V65.6764H214.053V65.8182ZM214.053 70.4375H213.911V70.5793H214.053V70.4375ZM214.359 70.4375V70.5793H214.457L214.492 70.4879L214.359 70.4375ZM217.274 66.8239L217.351 66.9427L217.352 66.9423L217.274 66.8239ZM230.143 70.0795L230.017 70.1437L230.017 70.1441L230.143 70.0795ZM231.268 92V92.1418H231.41V92H231.268ZM224.007 92H223.865V92.1418H224.007V92ZM224.007 76.625L223.865 76.624V76.625H224.007ZM222.78 72.875L222.675 72.9706L222.676 72.9712L222.78 72.875ZM216.763 72.142L216.693 72.0184L216.693 72.0188L216.763 72.142ZM215.024 73.983L214.898 73.9174L214.898 73.9181L215.024 73.983ZM214.393 76.8636H214.252V92H214.393H214.535V76.8636H214.393ZM214.393 92V91.8582H207.132V92V92.1418H214.393V92ZM207.132 92H207.274V65.8182H207.132H206.99V92H207.132ZM207.132 65.8182V65.96H214.053V65.8182V65.6764H207.132V65.8182ZM214.053 65.8182H213.911V70.4375H214.053H214.194V65.8182H214.053ZM214.053 70.4375V70.5793H214.359V70.4375V70.2957H214.053V70.4375ZM214.359 70.4375L214.492 70.4879C215.061 68.9932 216.013 67.8127 217.351 66.9427L217.274 66.8239L217.197 66.705C215.808 67.6078 214.817 68.8363 214.227 70.3871L214.359 70.4375ZM217.274 66.8239L217.352 66.9423C218.689 66.0625 220.314 65.6191 222.234 65.6191V65.4773V65.3355C220.269 65.3355 218.587 65.7898 217.196 66.7054L217.274 66.8239ZM222.234 65.4773V65.6191C224.031 65.6191 225.591 66.0119 226.918 66.7927L226.99 66.6705L227.062 66.5482C225.685 65.7381 224.074 65.3355 222.234 65.3355V65.4773ZM226.99 66.6705L226.918 66.7927C228.246 67.5736 229.279 68.6892 230.017 70.1437L230.143 70.0795L230.27 70.0154C229.508 68.5153 228.439 67.3582 227.062 66.5482L226.99 66.6705ZM230.143 70.0795L230.017 70.1441C230.755 71.5859 231.127 73.3127 231.127 75.3295H231.268H231.41C231.41 73.2782 231.032 71.505 230.27 70.015L230.143 70.0795ZM231.268 75.3295H231.127V92H231.268H231.41V75.3295H231.268ZM231.268 92V91.8582H224.007V92V92.1418H231.268V92ZM224.007 92H224.149V76.625H224.007H223.865V92H224.007ZM224.007 76.625L224.149 76.626C224.16 74.9992 223.745 73.7103 222.884 72.7788L222.78 72.875L222.676 72.9712C223.474 73.8351 223.877 75.0462 223.865 76.624L224.007 76.625ZM222.78 72.875L222.885 72.7794C222.023 71.8355 220.84 71.3696 219.354 71.3696V71.5114V71.6532C220.776 71.6532 221.877 72.0963 222.675 72.9706L222.78 72.875ZM219.354 71.5114V71.3696C218.356 71.3696 217.467 71.5845 216.693 72.0184L216.763 72.142L216.832 72.2657C217.558 71.8587 218.397 71.6532 219.354 71.6532V71.5114ZM216.763 72.142L216.693 72.0188C215.929 72.4537 215.331 73.0882 214.898 73.9174L215.024 73.983L215.15 74.0485C215.559 73.2641 216.12 72.6713 216.833 72.2653L216.763 72.142ZM215.024 73.983L214.898 73.9181C214.477 74.7376 214.263 75.7207 214.252 76.8622L214.393 76.8636L214.535 76.8651C214.546 75.7566 214.754 74.8192 215.15 74.0478L215.024 73.983ZM236.991 92H236.85V92.1418H236.991V92ZM236.991 65.8182V65.6764H236.85V65.8182H236.991ZM244.253 65.8182H244.395V65.6764H244.253V65.8182ZM244.253 92V92.1418H244.395V92H244.253ZM237.861 61.3693L237.763 61.4719L237.764 61.4733L237.861 61.3693ZM237.861 56.1875L237.958 56.2908L237.958 56.2908L237.861 56.1875ZM243.401 56.1875L243.303 56.29L243.304 56.2915L243.401 56.1875ZM243.401 61.3693L243.498 61.4726L243.498 61.4726L243.401 61.3693ZM236.991 92H237.133V65.8182H236.991H236.85V92H236.991ZM236.991 65.8182V65.96H244.253V65.8182V65.6764H236.991V65.8182ZM244.253 65.8182H244.111V92H244.253H244.395V65.8182H244.253ZM244.253 92V91.8582H236.991V92V92.1418H244.253V92ZM240.639 62.4432V62.3014C239.594 62.3014 238.703 61.9563 237.957 61.2653L237.861 61.3693L237.764 61.4733C238.564 62.2142 239.525 62.585 240.639 62.585V62.4432ZM237.861 61.3693L237.959 61.2668C237.224 60.565 236.861 59.7322 236.861 58.7614H236.719H236.577C236.577 59.8132 236.975 60.7191 237.763 61.4718L237.861 61.3693ZM236.719 58.7614H236.861C236.861 57.8024 237.224 56.9813 237.958 56.2908L237.861 56.1875L237.764 56.0842C236.975 56.8255 236.577 57.7203 236.577 58.7614H236.719ZM237.861 56.1875L237.958 56.2908C238.704 55.5887 239.595 55.2384 240.639 55.2384V55.0966V54.9548C239.524 54.9548 238.563 55.3317 237.764 56.0842L237.861 56.1875ZM240.639 55.0966V55.2384C241.683 55.2384 242.568 55.5887 243.303 56.29L243.401 56.1875L243.499 56.085C242.71 55.3318 241.754 54.9548 240.639 54.9548V55.0966ZM243.401 56.1875L243.304 56.2915C244.05 56.9822 244.418 57.8032 244.418 58.7614H244.56H244.701C244.701 57.7196 244.297 56.8246 243.497 56.0835L243.401 56.1875ZM244.56 58.7614H244.418C244.418 59.7315 244.049 60.5641 243.303 61.2661L243.401 61.3693L243.498 61.4726C244.297 60.72 244.701 59.8139 244.701 58.7614H244.56ZM243.401 61.3693L243.303 61.266C242.569 61.9563 241.684 62.3014 240.639 62.3014V62.4432V62.585C241.754 62.585 242.709 62.2141 243.498 61.4726L243.401 61.3693ZM266.859 80.8523H266.718L266.718 80.8536L266.859 80.8523ZM266.859 65.8182V65.6764H266.718V65.8182H266.859ZM274.121 65.8182H274.263V65.6764H274.121V65.8182ZM274.121 92V92.1418H274.263V92H274.121ZM267.149 92H267.007V92.1418H267.149V92ZM267.149 87.2443H267.291V87.1025H267.149V87.2443ZM266.876 87.2443V87.1025H266.779L266.744 87.1934L266.876 87.2443ZM263.928 90.9432L263.848 90.8258L263.848 90.8261L263.928 90.9432ZM254.314 91.1477L254.387 91.0261L254.387 91.0261L254.314 91.1477ZM251.195 87.7557L251.068 87.8195L251.068 87.8203L251.195 87.7557ZM250.07 82.4886H249.928L249.928 82.4894L250.07 82.4886ZM250.07 65.8182V65.6764H249.928V65.8182H250.07ZM257.331 65.8182H257.473V65.6764H257.331V65.8182ZM257.331 81.1932H257.189L257.189 81.1942L257.331 81.1932ZM258.575 84.858L258.68 84.7624L258.68 84.7624L258.575 84.858ZM264.32 85.608L264.385 85.7336L264.387 85.7329L264.32 85.608ZM266.161 83.8011L266.039 83.7282L266.038 83.7295L266.161 83.8011ZM266.859 80.8523H267.001V65.8182H266.859H266.718V80.8523H266.859ZM266.859 65.8182V65.96H274.121V65.8182V65.6764H266.859V65.8182ZM274.121 65.8182H273.979V92H274.121H274.263V65.8182H274.121ZM274.121 92V91.8582H267.149V92V92.1418H274.121V92ZM267.149 92H267.291V87.2443H267.149H267.007V92H267.149ZM267.149 87.2443V87.1025H266.876V87.2443V87.3861H267.149V87.2443ZM266.876 87.2443L266.744 87.1934C266.164 88.7001 265.199 89.91 263.848 90.8258L263.928 90.9432L264.007 91.0606C265.406 90.1127 266.407 88.8567 267.009 87.2953L266.876 87.2443ZM263.928 90.9432L263.848 90.8261C262.512 91.739 260.876 92.1991 258.933 92.1991V92.3409V92.4827C260.922 92.4827 262.616 92.011 264.008 91.0603L263.928 90.9432ZM258.933 92.3409V92.1991C257.205 92.1991 255.692 91.8067 254.387 91.0261L254.314 91.1477L254.241 91.2694C255.595 92.0797 257.161 92.4827 258.933 92.4827V92.3409ZM254.314 91.1477L254.387 91.0261C253.081 90.2451 252.06 89.1349 251.321 87.6911L251.195 87.7557L251.068 87.8203C251.83 89.3083 252.887 90.4594 254.241 91.2694L254.314 91.1477ZM251.195 87.7557L251.321 87.6919C250.595 86.2497 250.223 84.5167 250.211 82.4878L250.07 82.4886L249.928 82.4894C249.939 84.5515 250.317 86.3298 251.068 87.8195L251.195 87.7557ZM250.07 82.4886H250.211V65.8182H250.07H249.928V82.4886H250.07ZM250.07 65.8182V65.96H257.331V65.8182V65.6764H250.07V65.8182ZM257.331 65.8182H257.189V81.1932H257.331H257.473V65.8182H257.331ZM257.331 81.1932L257.189 81.1942C257.201 82.7648 257.623 84.0234 258.47 84.9535L258.575 84.858L258.68 84.7624C257.891 83.897 257.484 82.7125 257.473 81.1921L257.331 81.1932ZM258.575 84.858L258.47 84.9535C259.319 85.8847 260.456 86.3463 261.865 86.3463V86.2045V86.0628C260.524 86.0628 259.468 85.6266 258.68 84.7624L258.575 84.858ZM261.865 86.2045V86.3463C262.762 86.3463 263.603 86.1421 264.385 85.7336L264.32 85.608L264.254 85.4823C263.513 85.8692 262.718 86.0628 261.865 86.0628V86.2045ZM264.32 85.608L264.387 85.7329C265.173 85.3106 265.805 84.6892 266.283 83.8728L266.161 83.8011L266.038 83.7295C265.585 84.504 264.989 85.0871 264.252 85.4831L264.32 85.608ZM266.161 83.8011L266.282 83.8741C266.776 83.051 267.013 82.0407 267.001 80.8509L266.859 80.8523L266.718 80.8536C266.729 82.0047 266.5 82.9603 266.039 83.7282L266.161 83.8011ZM279.929 92H279.787V92.1418H279.929V92ZM279.929 65.8182V65.6764H279.787V65.8182H279.929ZM286.849 65.8182H286.991V65.6764H286.849V65.8182ZM286.849 70.4375H286.708V70.5793H286.849V70.4375ZM287.156 70.4375V70.5793H287.256L287.29 70.485L287.156 70.4375ZM289.884 66.8068L289.802 66.6905L289.802 66.6905L289.884 66.8068ZM299.037 66.8239L298.955 66.9394L298.955 66.9399L299.037 66.8239ZM301.56 70.4375L301.423 70.4752L301.452 70.5793H301.56V70.4375ZM301.832 70.4375V70.5793H301.932L301.966 70.4851L301.832 70.4375ZM304.73 66.8409L304.807 66.9602L304.807 66.9601L304.73 66.8409ZM315.673 67.8125L315.572 67.9116L315.573 67.9124L315.673 67.8125ZM317.974 92V92.1418H318.116V92H317.974ZM310.73 92H310.588V92.1418H310.73V92ZM309.571 72.5511L309.474 72.6544L309.474 72.6544L309.571 72.5511ZM303.588 72.7216L303.694 72.8159L303.695 72.8152L303.588 72.7216ZM302.48 92V92.1418H302.622V92H302.48ZM295.44 92H295.299V92.1418H295.44V92ZM294.332 72.6023L294.23 72.7002L294.231 72.701L294.332 72.6023ZM289.27 72.0739L289.345 72.1941L289.346 72.1937L289.27 72.0739ZM287.753 73.7614L287.878 73.8272L287.879 73.8263L287.753 73.7614ZM287.19 92V92.1418H287.332V92H287.19ZM279.929 92H280.071V65.8182H279.929H279.787V92H279.929ZM279.929 65.8182V65.96H286.849V65.8182V65.6764H279.929V65.8182ZM286.849 65.8182H286.708V70.4375H286.849H286.991V65.8182H286.849ZM286.849 70.4375V70.5793H287.156V70.4375V70.2957H286.849V70.4375ZM287.156 70.4375L287.29 70.485C287.826 68.9773 288.717 67.7918 289.965 66.9232L289.884 66.8068L289.802 66.6905C288.504 67.5946 287.577 68.8295 287.023 70.39L287.156 70.4375ZM289.884 66.8068L289.965 66.9232C291.21 66.0557 292.704 65.6191 294.452 65.6191V65.4773V65.3355C292.654 65.3355 291.102 65.7852 289.802 66.6905L289.884 66.8068ZM294.452 65.4773V65.6191C296.223 65.6191 297.721 66.0614 298.955 66.9394L299.037 66.8239L299.119 66.7083C297.83 65.7909 296.272 65.3355 294.452 65.3355V65.4773ZM299.037 66.8239L298.955 66.9399C300.189 67.8068 301.011 68.9834 301.423 70.4752L301.56 70.4375L301.696 70.3998C301.267 68.8462 300.407 67.6136 299.118 66.7078L299.037 66.8239ZM301.56 70.4375V70.5793H301.832V70.4375V70.2957H301.56V70.4375ZM301.832 70.4375L301.966 70.4851C302.489 69.016 303.434 67.8418 304.807 66.9602L304.73 66.8409L304.653 66.7216C303.231 67.6355 302.244 68.859 301.699 70.3899L301.832 70.4375ZM304.73 66.8409L304.807 66.9601C306.19 66.0678 307.827 65.6191 309.724 65.6191V65.4773V65.3355C307.781 65.3355 306.088 65.7958 304.653 66.7218L304.73 66.8409ZM309.724 65.4773V65.6191C312.135 65.6191 314.079 66.3855 315.572 67.9116L315.673 67.8125L315.775 67.7134C314.222 66.1258 312.201 65.3355 309.724 65.3355V65.4773ZM315.673 67.8125L315.573 67.9124C317.073 69.4239 317.833 71.5767 317.833 74.392H317.974H318.116C318.116 71.5256 317.342 69.292 315.774 67.7126L315.673 67.8125ZM317.974 74.392H317.833V92H317.974H318.116V74.392H317.974ZM317.974 92V91.8582H310.73V92V92.1418H317.974V92ZM310.73 92H310.872V75.8239H310.73H310.588V92H310.73ZM310.73 75.8239H310.872C310.872 74.3452 310.479 73.2107 309.668 72.4479L309.571 72.5511L309.474 72.6544C310.209 73.3461 310.588 74.3934 310.588 75.8239H310.73ZM309.571 72.5511L309.668 72.4479C308.867 71.6935 307.865 71.3184 306.673 71.3184V71.4602V71.602C307.8 71.602 308.73 71.9543 309.474 72.6544L309.571 72.5511ZM306.673 71.4602V71.3184C305.322 71.3184 304.252 71.7509 303.482 72.628L303.588 72.7216L303.695 72.8152C304.401 72.0104 305.388 71.602 306.673 71.602V71.4602ZM303.588 72.7216L303.482 72.6273C302.715 73.4884 302.338 74.6212 302.338 76.0114H302.48H302.622C302.622 74.6742 302.983 73.6139 303.694 72.8159L303.588 72.7216ZM302.48 76.0114H302.338V92H302.48H302.622V76.0114H302.48ZM302.48 92V91.8582H295.44V92V92.1418H302.48V92ZM295.44 92H295.582V75.6705H295.44H295.299V92H295.44ZM295.44 75.6705H295.582C295.582 74.3577 295.204 73.2967 294.434 72.5035L294.332 72.6023L294.231 72.701C294.938 73.4305 295.299 74.415 295.299 75.6705H295.44ZM294.332 72.6023L294.435 72.5043C293.677 71.7111 292.678 71.3184 291.452 71.3184V71.4602V71.602C292.612 71.602 293.533 71.9707 294.23 72.7002L294.332 72.6023ZM291.452 71.4602V71.3184C290.62 71.3184 289.866 71.5298 289.194 71.954L289.27 72.0739L289.346 72.1937C289.969 71.7997 290.67 71.602 291.452 71.602V71.4602ZM289.27 72.0739L289.195 71.9536C288.535 72.3661 288.012 72.9486 287.627 73.6964L287.753 73.7614L287.879 73.8263C288.243 73.1196 288.732 72.5771 289.345 72.1941L289.27 72.0739ZM287.753 73.7614L287.627 73.6956C287.24 74.4354 287.049 75.2997 287.049 76.2841H287.19H287.332C287.332 75.3367 287.516 74.5192 287.878 73.8272L287.753 73.7614ZM287.19 76.2841H287.049V92H287.19H287.332V76.2841H287.19ZM287.19 92V91.8582H279.929V92V92.1418H287.19V92ZM334.956 92H334.814V92.1418H334.956V92ZM334.956 57.0909V56.9491H334.814V57.0909H334.956ZM342.337 57.0909H342.478V56.9491H342.337V57.0909ZM342.337 85.9148H342.195V86.0566H342.337V85.9148ZM357.303 85.9148H357.444V85.773H357.303V85.9148ZM357.303 92V92.1418H357.444V92H357.303ZM334.956 92H335.098V57.0909H334.956H334.814V92H334.956ZM334.956 57.0909V57.2327H342.337V57.0909V56.9491H334.956V57.0909ZM342.337 57.0909H342.195V85.9148H342.337H342.478V57.0909H342.337ZM342.337 85.9148V86.0566H357.303V85.9148V85.773H342.337V85.9148ZM357.303 85.9148H357.161V92H357.303H357.444V85.9148H357.303ZM357.303 92V91.8582H334.956V92V92.1418H357.303V92ZM365.054 91.625L364.996 91.7542L364.996 91.7546L365.054 91.625ZM361.952 89.017L361.833 89.0941L361.834 89.0954L361.952 89.017ZM361.628 81.0227L361.503 80.9553L361.503 80.9553L361.628 81.0227ZM363.81 78.6364L363.732 78.5177L363.732 78.5177L363.81 78.6364ZM366.946 77.2727L366.91 77.1355L366.91 77.1356L366.946 77.2727ZM370.662 76.625L370.676 76.7661L370.677 76.766L370.662 76.625ZM374.344 76.1818L374.364 76.3221L374.366 76.3219L374.344 76.1818ZM376.372 75.5341L376.293 75.4166L376.293 75.4166L376.372 75.5341ZM375.98 71.6648L375.886 71.7711L375.887 71.7719L375.98 71.6648ZM369.997 71.6477L370.081 71.762L370.082 71.7612L369.997 71.6477ZM368.463 73.7955L368.452 73.9368L368.567 73.9462L368.599 73.8349L368.463 73.7955ZM361.747 73.25L361.609 73.2203L361.575 73.3782L361.736 73.3913L361.747 73.25ZM363.759 69.125L363.866 69.2176L363.866 69.2171L363.759 69.125ZM367.628 66.4318L367.68 66.5637L367.681 66.5635L367.628 66.4318ZM377.327 65.9886L377.291 66.126L377.292 66.1261L377.327 65.9886ZM380.889 67.5739L380.808 67.6904L380.809 67.6909L380.889 67.5739ZM383.361 70.3352L383.236 70.4021L383.236 70.4027L383.361 70.3352ZM384.264 92V92.1418H384.406V92H384.264ZM377.378 92H377.236V92.1418H377.378V92ZM377.378 88.3693H377.52V88.2275H377.378V88.3693ZM377.173 88.3693V88.2275H377.087L377.047 88.3045L377.173 88.3693ZM375.486 90.5341L375.579 90.641L375.58 90.6402L375.486 90.5341ZM372.946 91.983L372.992 92.117L372.994 92.1165L372.946 91.983ZM374.429 86.8523L374.494 86.9784L374.495 86.9777L374.429 86.8523ZM376.355 85.1136L376.236 85.0372L376.236 85.0372L376.355 85.1136ZM377.054 79.8636H377.196V79.6024L376.977 79.7448L377.054 79.8636ZM376.116 80.2727L376.156 80.4088L376.159 80.408L376.116 80.2727ZM374.804 80.5966L374.83 80.736L374.833 80.7354L374.804 80.5966ZM373.338 80.8523L373.358 80.9927L373.361 80.9922L373.338 80.8523ZM372.009 81.0398L371.988 80.8994L371.988 80.8995L372.009 81.0398ZM369.776 81.6364L369.831 81.7667L369.831 81.7667L369.776 81.6364ZM368.293 82.7443L368.405 82.8312L368.406 82.8298L368.293 82.7443ZM368.838 86.7159L368.754 86.8304L368.757 86.8319L368.838 86.7159ZM369.52 92.4943V92.3525C367.866 92.3525 366.397 92.0657 365.111 91.4954L365.054 91.625L364.996 91.7546C366.324 92.3434 367.833 92.6361 369.52 92.6361V92.4943ZM365.054 91.625L365.112 91.4958C363.829 90.9154 362.816 90.0632 362.07 88.9387L361.952 89.017L361.834 89.0954C362.61 90.2663 363.666 91.1528 364.996 91.7542L365.054 91.625ZM361.952 89.017L362.071 88.94C361.339 87.809 360.968 86.3943 360.968 84.6875H360.827H360.685C360.685 86.4353 361.064 87.9069 361.833 89.0941L361.952 89.017ZM360.827 84.6875H360.968C360.968 83.2498 361.232 82.0528 361.753 81.0901L361.628 81.0227L361.503 80.9553C360.955 81.9699 360.685 83.2162 360.685 84.6875H360.827ZM361.628 81.0227L361.753 81.0901C362.276 80.1218 362.987 79.3441 363.887 78.755L363.81 78.6364L363.732 78.5177C362.791 79.1332 362.048 79.9464 361.503 80.9553L361.628 81.0227ZM363.81 78.6364L363.887 78.755C364.794 78.1619 365.825 77.7132 366.982 77.4099L366.946 77.2727L366.91 77.1356C365.726 77.4459 364.666 77.9063 363.732 78.5177L363.81 78.6364ZM366.946 77.2727L366.982 77.41C368.156 77.1051 369.387 76.8905 370.676 76.7661L370.662 76.625L370.648 76.4839C369.346 76.6095 368.1 76.8267 366.91 77.1355L366.946 77.2727ZM370.662 76.625L370.677 76.766C372.2 76.6068 373.43 76.4589 374.364 76.3221L374.344 76.1818L374.323 76.0415C373.394 76.1775 372.169 76.325 370.647 76.484L370.662 76.625ZM374.344 76.1818L374.366 76.3219C375.304 76.1732 376.005 75.9534 376.452 75.6516L376.372 75.5341L376.293 75.4166C375.899 75.683 375.248 75.895 374.322 76.0418L374.344 76.1818ZM376.372 75.5341L376.452 75.6516C376.915 75.3382 377.145 74.8712 377.145 74.2727H377.003H376.861C376.861 74.7878 376.67 75.1618 376.293 75.4166L376.372 75.5341ZM377.003 74.2727H377.145V74.1705H377.003H376.861V74.2727H377.003ZM377.003 74.1705H377.145C377.145 73.0586 376.792 72.1808 376.073 71.5576L375.98 71.6648L375.887 71.7719C376.532 72.3306 376.861 73.1232 376.861 74.1705H377.003ZM375.98 71.6648L376.074 71.5584C375.369 70.9372 374.376 70.6366 373.116 70.6366V70.7784V70.9202C374.334 70.9202 375.25 71.2106 375.886 71.7711L375.98 71.6648ZM373.116 70.7784V70.6366C371.79 70.6366 370.717 70.9308 369.912 71.5343L369.997 71.6477L370.082 71.7612C370.823 71.2055 371.83 70.9202 373.116 70.9202V70.7784ZM369.997 71.6477L369.913 71.5335C369.117 72.1189 368.586 72.8603 368.327 73.756L368.463 73.7955L368.599 73.8349C368.84 73.0033 369.332 72.313 370.081 71.762L369.997 71.6477ZM368.463 73.7955L368.475 73.6541L361.759 73.1087L361.747 73.25L361.736 73.3913L368.452 73.9368L368.463 73.7955ZM361.747 73.25L361.886 73.2797C362.222 71.7106 362.882 70.3576 363.866 69.2176L363.759 69.125L363.651 69.0324C362.635 70.2106 361.954 71.6076 361.609 73.2203L361.747 73.25ZM363.759 69.125L363.866 69.2171C364.85 68.066 366.12 67.181 367.68 66.5637L367.628 66.4318L367.576 66.3C365.977 66.9326 364.667 67.8431 363.651 69.0329L363.759 69.125ZM367.628 66.4318L367.681 66.5635C369.251 65.9351 371.074 65.6191 373.151 65.6191V65.4773V65.3355C371.045 65.3355 369.186 65.6558 367.575 66.3002L367.628 66.4318ZM373.151 65.4773V65.6191C374.594 65.6191 375.974 65.7882 377.291 66.126L377.327 65.9886L377.362 65.8513C376.02 65.5073 374.616 65.3355 373.151 65.3355V65.4773ZM377.327 65.9886L377.292 66.1261C378.618 66.4632 379.79 66.9851 380.808 67.6904L380.889 67.5739L380.97 67.4573C379.921 66.7308 378.717 66.1959 377.362 65.8512L377.327 65.9886ZM380.889 67.5739L380.809 67.6909C381.836 68.3938 382.644 69.297 383.236 70.4021L383.361 70.3352L383.486 70.2683C382.873 69.1234 382.034 68.1857 380.969 67.4569L380.889 67.5739ZM383.361 70.3352L383.236 70.4027C383.825 71.4914 384.122 72.8023 384.122 74.3409H384.264H384.406C384.406 72.7659 384.101 71.4064 383.486 70.2678L383.361 70.3352ZM384.264 74.3409H384.122V92H384.264H384.406V74.3409H384.264ZM384.264 92V91.8582H377.378V92V92.1418H384.264V92ZM377.378 92H377.52V88.3693H377.378H377.236V92H377.378ZM377.378 88.3693V88.2275H377.173V88.3693V88.5111H377.378V88.3693ZM377.173 88.3693L377.047 88.3045C376.635 89.1067 376.083 89.8144 375.392 90.428L375.486 90.5341L375.58 90.6402C376.297 90.0038 376.871 89.2683 377.299 88.4341L377.173 88.3693ZM375.486 90.5341L375.393 90.4272C374.703 91.0278 373.872 91.5023 372.898 91.8494L372.946 91.983L372.994 92.1165C373.997 91.759 374.859 91.2676 375.579 90.641L375.486 90.5341ZM372.946 91.983L372.9 91.8489C371.929 92.1836 370.803 92.3525 369.52 92.3525V92.4943V92.6361C370.827 92.6361 371.986 92.4641 372.992 92.117L372.946 91.983ZM371.599 87.483V87.6247C372.687 87.6247 373.653 87.4107 374.494 86.9784L374.429 86.8523L374.364 86.7262C373.569 87.1348 372.649 87.3412 371.599 87.3412V87.483ZM374.429 86.8523L374.495 86.9777C375.333 86.5353 375.994 85.9395 376.475 85.1901L376.355 85.1136L376.236 85.0372C375.784 85.7423 375.161 86.3057 374.363 86.7269L374.429 86.8523ZM376.355 85.1136L376.475 85.1901C376.956 84.4385 377.196 83.5877 377.196 82.642H377.054H376.912C376.912 83.5373 376.686 84.3342 376.236 85.0372L376.355 85.1136ZM377.054 82.642H377.196V79.8636H377.054H376.912V82.642H377.054ZM377.054 79.8636L376.977 79.7448C376.764 79.8828 376.465 80.0145 376.074 80.1375L376.116 80.2727L376.159 80.408C376.563 80.281 376.889 80.14 377.131 79.9825L377.054 79.8636ZM376.116 80.2727L376.076 80.1367C375.694 80.2491 375.261 80.3561 374.775 80.4578L374.804 80.5966L374.833 80.7354C375.325 80.6325 375.766 80.5237 376.156 80.4088L376.116 80.2727ZM374.804 80.5966L374.778 80.4572C374.29 80.5479 373.803 80.633 373.315 80.7123L373.338 80.8523L373.361 80.9922C373.851 80.9125 374.34 80.8271 374.83 80.736L374.804 80.5966ZM373.338 80.8523L373.318 80.7118C372.83 80.78 372.386 80.8426 371.988 80.8994L372.009 81.0398L372.029 81.1801C372.426 81.1233 372.869 81.0609 373.358 80.9927L373.338 80.8523ZM372.009 81.0398L371.988 80.8995C371.126 81.0258 370.37 81.2275 369.72 81.506L369.776 81.6364L369.831 81.7667C370.454 81.4998 371.186 81.3037 372.029 81.1801L372.009 81.0398ZM369.776 81.6364L369.72 81.506C369.065 81.7867 368.549 82.1699 368.18 82.6588L368.293 82.7443L368.406 82.8298C368.741 82.3869 369.213 82.0315 369.831 81.7667L369.776 81.6364ZM368.293 82.7443L368.181 82.6575C367.806 83.1413 367.622 83.7416 367.622 84.4489H367.764H367.906C367.906 83.7924 368.075 83.2565 368.405 82.8312L368.293 82.7443ZM367.764 84.4489H367.622C367.622 85.4767 367.997 86.2776 368.754 86.8304L368.838 86.7159L368.922 86.6014C368.247 86.1087 367.906 85.3983 367.906 84.4489H367.764ZM368.838 86.7159L368.757 86.8319C369.513 87.3639 370.464 87.6247 371.599 87.6247V87.483V87.3412C370.508 87.3412 369.618 87.0907 368.92 86.5999L368.838 86.7159ZM394.142 90.892L394.065 91.0112L394.066 91.0118L394.142 90.892ZM390.324 86.3409L390.195 86.4005L390.196 86.4014L390.324 86.3409ZM390.375 71.4602L390.503 71.5222L390.503 71.5219L390.375 71.4602ZM394.227 66.9773L394.302 67.0979L394.302 67.0978L394.227 66.9773ZM403.193 66.2273L403.129 66.3535L403.13 66.3544L403.193 66.2273ZM405.58 68.0682L405.47 68.1578L405.471 68.1596L405.58 68.0682ZM406.977 70.2159L406.848 70.2743L406.886 70.3577H406.977V70.2159ZM407.199 70.2159V70.3577H407.341V70.2159H407.199ZM407.199 57.0909V56.9491H407.057V57.0909H407.199ZM414.443 57.0909H414.585V56.9491H414.443V57.0909ZM414.443 92V92.1418H414.585V92H414.443ZM407.284 92H407.142V92.1418H407.284V92ZM407.284 87.8068H407.426V87.665H407.284V87.8068ZM406.977 87.8068V87.665H406.887L406.849 87.7466L406.977 87.8068ZM405.528 89.9716L405.422 89.8783L405.421 89.8785L405.528 89.9716ZM403.125 91.7273L403.065 91.599L403.064 91.5993L403.125 91.7273ZM404.812 85.6932L404.9 85.8045L404.901 85.8044L404.812 85.6932ZM406.688 82.983L406.555 82.9323L406.555 82.9335L406.688 82.983ZM406.705 74.8523L406.837 74.8023L406.837 74.8023L406.705 74.8523ZM398.83 72.2273L398.742 72.1161L398.742 72.1161L398.83 72.2273ZM396.972 82.9489L396.838 82.9968L396.839 82.9984L396.972 82.9489ZM398.83 85.6761L398.74 85.786L398.742 85.7873L398.83 85.6761ZM399.545 92.4261V92.2843C397.583 92.2843 395.808 91.78 394.218 90.7723L394.142 90.892L394.066 91.0118C395.703 92.0495 397.531 92.5679 399.545 92.5679V92.4261ZM394.142 90.892L394.219 90.7729C392.642 89.7554 391.386 88.2604 390.452 86.2804L390.324 86.3409L390.196 86.4014C391.148 88.4215 392.437 89.9606 394.065 91.0112L394.142 90.892ZM390.324 86.3409L390.453 86.2813C389.532 84.2936 389.068 81.8493 389.068 78.9432H388.926H388.784C388.784 81.878 389.252 84.3655 390.195 86.4005L390.324 86.3409ZM388.926 78.9432H389.068C389.068 75.9574 389.549 73.4859 390.503 71.5222L390.375 71.4602L390.247 71.3983C389.269 73.4118 388.784 75.929 388.784 78.9432H388.926ZM390.375 71.4602L390.503 71.5219C391.459 69.5418 392.726 68.07 394.302 67.0979L394.227 66.9773L394.153 66.8566C392.524 67.8618 391.223 69.3787 390.247 71.3986L390.375 71.4602ZM394.227 66.9773L394.302 67.0978C395.893 66.1119 397.634 65.6191 399.528 65.6191V65.4773V65.3355C397.582 65.3355 395.789 65.8427 394.153 66.8567L394.227 66.9773ZM399.528 65.4773V65.6191C400.979 65.6191 402.177 65.8666 403.129 66.3535L403.193 66.2273L403.258 66.101C402.255 65.588 401.01 65.3355 399.528 65.3355V65.4773ZM403.193 66.2273L403.13 66.3544C404.104 66.8354 404.882 67.4372 405.47 68.1578L405.58 68.0682L405.689 67.9786C405.072 67.2219 404.26 66.5964 403.256 66.1002L403.193 66.2273ZM405.58 68.0682L405.471 68.1596C406.078 68.8791 406.536 69.584 406.848 70.2743L406.977 70.2159L407.106 70.1575C406.782 69.4387 406.308 68.7118 405.688 67.9767L405.58 68.0682ZM406.977 70.2159V70.3577H407.199V70.2159V70.0741H406.977V70.2159ZM407.199 70.2159H407.341V57.0909H407.199H407.057V70.2159H407.199ZM407.199 57.0909V57.2327H414.443V57.0909V56.9491H407.199V57.0909ZM414.443 57.0909H414.301V92H414.443H414.585V57.0909H414.443ZM414.443 92V91.8582H407.284V92V92.1418H414.443V92ZM407.284 92H407.426V87.8068H407.284H407.142V92H407.284ZM407.284 87.8068V87.665H406.977V87.8068V87.9486H407.284V87.8068ZM406.977 87.8068L406.849 87.7466C406.515 88.46 406.039 89.1706 405.422 89.8783L405.528 89.9716L405.635 90.0648C406.267 89.3407 406.758 88.6082 407.106 87.867L406.977 87.8068ZM405.528 89.9716L405.421 89.8785C404.823 90.5659 404.038 91.1401 403.065 91.599L403.125 91.7273L403.185 91.8555C404.189 91.3827 405.007 90.7864 405.635 90.0647L405.528 89.9716ZM403.125 91.7273L403.064 91.5993C402.111 92.0538 400.94 92.2843 399.545 92.2843V92.4261V92.5679C400.97 92.5679 402.185 92.3326 403.186 91.8553L403.125 91.7273ZM401.847 86.6477V86.7895C403.044 86.7895 404.065 86.4633 404.9 85.8045L404.812 85.6932L404.725 85.5819C403.946 86.1958 402.99 86.5059 401.847 86.5059V86.6477ZM404.812 85.6932L404.901 85.8044C405.742 85.1378 406.381 84.2113 406.82 83.0325L406.688 82.983L406.555 82.9335C406.13 84.0728 405.519 84.9531 404.724 85.582L404.812 85.6932ZM406.688 82.983L406.82 83.0336C407.271 81.8548 407.494 80.479 407.494 78.9091H407.352H407.21C407.21 80.4528 406.991 81.7929 406.555 82.9323L406.688 82.983ZM407.352 78.9091H407.494C407.494 77.3396 407.276 75.9697 406.837 74.8023L406.705 74.8523L406.572 74.9022C406.996 76.0303 407.21 77.3649 407.21 78.9091H407.352ZM406.705 74.8523L406.837 74.8023C406.398 73.6345 405.759 72.7245 404.916 72.0805L404.83 72.1932L404.743 72.3059C405.537 72.9119 406.148 73.7745 406.572 74.9022L406.705 74.8523ZM404.83 72.1932L404.916 72.0805C404.069 71.4341 403.044 71.1139 401.847 71.1139V71.2557V71.3975C402.99 71.3975 403.953 71.7023 404.743 72.3059L404.83 72.1932ZM401.847 71.2557V71.1139C400.626 71.1139 399.588 71.4457 398.742 72.1161L398.83 72.2273L398.918 72.3384C399.707 71.7133 400.681 71.3975 401.847 71.3975V71.2557ZM398.83 72.2273L398.742 72.1161C397.9 72.7827 397.266 73.7037 396.838 74.8717L396.972 74.9205L397.105 74.9692C397.518 73.8418 398.123 72.9673 398.918 72.3384L398.83 72.2273ZM396.972 74.9205L396.838 74.8717C396.411 76.0382 396.199 77.3849 396.199 78.9091H396.341H396.483C396.483 77.4106 396.691 76.0981 397.105 74.9692L396.972 74.9205ZM396.341 78.9091H396.199C396.199 80.4446 396.411 81.808 396.838 82.9968L396.972 82.9489L397.105 82.9009C396.691 81.7489 396.483 80.419 396.483 78.9091H396.341ZM396.972 82.9489L396.839 82.9984C397.278 84.1766 397.91 85.1082 398.74 85.7859L398.83 85.6761L398.919 85.5663C398.135 84.9259 397.529 84.0393 397.104 82.8994L396.972 82.9489ZM398.83 85.6761L398.742 85.7873C399.588 86.4577 400.626 86.7895 401.847 86.7895V86.6477V86.5059C400.681 86.5059 399.707 86.1901 398.918 85.565L398.83 85.6761ZM442.197 73.2841L442.206 73.4256L442.358 73.4163L442.338 73.2655L442.197 73.2841ZM435.55 73.6932L435.411 73.721L435.435 73.8423L435.558 73.8347L435.55 73.6932ZM434.817 72.1591L434.706 72.248L434.707 72.2493L434.817 72.1591ZM433.334 71.0511L433.273 71.1794L433.276 71.1807L433.334 71.0511ZM428.322 71.3409L428.396 71.4623L428.397 71.4615L428.322 71.3409ZM427.913 74.8011L427.821 74.9084L427.821 74.9084L427.913 74.8011ZM430.487 75.8409L430.457 75.9795L430.459 75.9799L430.487 75.8409ZM435.226 76.7955L435.254 76.6566L435.254 76.6565L435.226 76.7955ZM440.919 79.3182L440.823 79.4222L440.823 79.4222L440.919 79.3182ZM441.277 88.4034L441.165 88.3162L441.165 88.3168L441.277 88.4034ZM437.152 91.4375L437.206 91.5686L437.206 91.5684L437.152 91.4375ZM422.851 90.3466L422.769 90.4621L422.769 90.4627L422.851 90.3466ZM419.254 84.4148L419.247 84.2732L419.092 84.2813L419.114 84.4346L419.254 84.4148ZM426.396 84.0398L426.535 84.0114L426.511 83.8918L426.389 83.8982L426.396 84.0398ZM427.964 86.4602L427.885 86.578L427.887 86.5787L427.964 86.4602ZM434.22 86.5455L434.296 86.6653L434.296 86.665L434.22 86.5455ZM435.413 84.6193L435.555 84.6214L435.555 84.6169L435.413 84.6193ZM434.578 83L434.49 83.1112L434.492 83.1123L434.578 83ZM432.055 82.0114L432.083 81.8723L432.083 81.8723L432.055 82.0114ZM427.521 81.108L427.493 81.247L427.494 81.247L427.521 81.108ZM421.811 78.4489L421.71 78.5482L421.71 78.5487L421.811 78.4489ZM421.317 69.2784L421.204 69.1928L421.203 69.1935L421.317 69.2784ZM425.186 66.4659L425.134 66.334L425.134 66.3341L425.186 66.4659ZM438.857 67.5739L438.772 67.688L438.773 67.6883L438.857 67.5739ZM442.197 73.2841L442.189 73.1426L435.541 73.5517L435.55 73.6932L435.558 73.8347L442.206 73.4256L442.197 73.2841ZM435.55 73.6932L435.689 73.6654C435.57 73.0739 435.316 72.5411 434.926 72.0689L434.817 72.1591L434.707 72.2493C435.068 72.6861 435.302 73.1761 435.411 73.721L435.55 73.6932ZM434.817 72.1591L434.927 72.0702C434.536 71.5847 434.023 71.2023 433.391 70.9216L433.334 71.0511L433.276 71.1807C433.872 71.4454 434.347 71.8017 434.706 72.248L434.817 72.1591ZM433.334 71.0511L433.394 70.9229C432.769 70.6279 432.026 70.4832 431.169 70.4832V70.625V70.7668C431.994 70.7668 432.694 70.9062 433.273 71.1794L433.334 71.0511ZM431.169 70.625V70.4832C430.024 70.4832 429.048 70.7262 428.248 71.2203L428.322 71.3409L428.397 71.4615C429.142 71.0011 430.064 70.7668 431.169 70.7668V70.625ZM428.322 71.3409L428.249 71.2195C427.442 71.7065 427.022 72.3738 427.022 73.2159H427.163H427.305C427.305 72.4898 427.658 71.9072 428.396 71.4623L428.322 71.3409ZM427.163 73.2159H427.022C427.022 73.8847 427.292 74.4514 427.821 74.9084L427.913 74.8011L428.006 74.6938C427.535 74.2872 427.305 73.7971 427.305 73.2159H427.163ZM427.913 74.8011L427.821 74.9084C428.348 75.3642 429.235 75.7169 430.457 75.9795L430.487 75.8409L430.517 75.7023C429.307 75.4422 428.478 75.1017 428.006 74.6938L427.913 74.8011ZM430.487 75.8409L430.459 75.9799L435.198 76.9345L435.226 76.7955L435.254 76.6565L430.515 75.7019L430.487 75.8409ZM435.226 76.7955L435.197 76.9343C437.73 77.4544 439.599 78.2876 440.823 79.4222L440.919 79.3182L441.015 79.2142C439.739 78.0306 437.813 77.182 435.254 76.6566L435.226 76.7955ZM440.919 79.3182L440.823 79.4222C442.04 80.5514 442.652 82.0348 442.652 83.8864H442.794H442.936C442.936 81.9652 442.298 80.4032 441.015 79.2142L440.919 79.3182ZM442.794 83.8864H442.652C442.652 85.5722 442.156 87.0468 441.165 88.3162L441.277 88.4034L441.389 88.4907C442.42 87.1691 442.936 85.6324 442.936 83.8864H442.794ZM441.277 88.4034L441.165 88.3168C440.182 89.5898 438.828 90.5873 437.098 91.3066L437.152 91.4375L437.206 91.5684C438.976 90.8332 440.372 89.808 441.389 88.4901L441.277 88.4034ZM437.152 91.4375L437.098 91.3064C435.38 92.0139 433.393 92.3696 431.135 92.3696V92.5114V92.6532C433.422 92.6532 435.447 92.2929 437.206 91.5686L437.152 91.4375ZM431.135 92.5114V92.3696C427.687 92.3696 424.958 91.6517 422.932 90.2305L422.851 90.3466L422.769 90.4627C424.858 91.9279 427.651 92.6532 431.135 92.6532V92.5114ZM422.851 90.3466L422.933 90.231C420.92 88.7992 419.742 86.8567 419.395 84.395L419.254 84.4148L419.114 84.4346C419.472 86.9729 420.691 88.9849 422.769 90.4621L422.851 90.3466ZM419.254 84.4148L419.262 84.5564L426.404 84.1814L426.396 84.0398L426.389 83.8982L419.247 84.2732L419.254 84.4148ZM426.396 84.0398L426.257 84.0682C426.48 85.1583 427.022 85.9986 427.885 86.578L427.964 86.4602L428.044 86.3425C427.248 85.8082 426.744 85.0349 426.535 84.0114L426.396 84.0398ZM427.964 86.4602L427.887 86.5787C428.745 87.1434 429.837 87.4202 431.152 87.4202V87.2784V87.1366C429.876 87.1366 428.843 86.868 428.042 86.3418L427.964 86.4602ZM431.152 87.2784V87.4202C432.441 87.4202 433.493 87.1729 434.296 86.6653L434.22 86.5455L434.144 86.4256C433.402 86.8953 432.408 87.1366 431.152 87.1366V87.2784ZM434.22 86.5455L434.296 86.665C435.112 86.1449 435.543 85.4626 435.555 84.6214L435.413 84.6193L435.272 84.6173C435.261 85.3442 434.896 85.946 434.144 86.4259L434.22 86.5455ZM435.413 84.6193L435.555 84.6169C435.543 83.9125 435.243 83.3331 434.665 82.8877L434.578 83L434.492 83.1123C435.005 83.5078 435.261 84.008 435.272 84.6218L435.413 84.6193ZM434.578 83L434.666 82.8888C434.095 82.4368 433.229 82.1014 432.083 81.8723L432.055 82.0114L432.028 82.1504C433.155 82.3758 433.97 82.6996 434.49 83.1112L434.578 83ZM432.055 82.0114L432.083 81.8723L427.549 80.9689L427.521 81.108L427.494 81.247L432.028 82.1504L432.055 82.0114ZM427.521 81.108L427.549 80.9689C425.008 80.4606 423.135 79.583 421.912 78.3491L421.811 78.4489L421.71 78.5487C422.988 79.8374 424.921 80.7325 427.493 81.247L427.521 81.108ZM421.811 78.4489L421.912 78.3495C420.703 77.1176 420.095 75.5467 420.095 73.625H419.953H419.811C419.811 75.6124 420.442 77.2574 421.71 78.5482L421.811 78.4489ZM419.953 73.625H420.095C420.095 71.9703 420.542 70.5521 421.43 69.3633L421.317 69.2784L421.203 69.1935C420.274 70.4366 419.811 71.916 419.811 73.625H419.953ZM421.317 69.2784L421.43 69.364C422.332 68.172 423.599 67.2489 425.238 66.5977L425.186 66.4659L425.134 66.3341C423.455 67.0011 422.142 67.953 421.204 69.1928L421.317 69.2784ZM425.186 66.4659L425.238 66.5978C426.888 65.9466 428.825 65.6191 431.05 65.6191V65.4773V65.3355C428.798 65.3355 426.825 65.667 425.134 66.334L425.186 66.4659ZM431.05 65.4773V65.6191C434.338 65.6191 436.907 66.3142 438.772 67.688L438.857 67.5739L438.941 67.4597C437.01 66.0381 434.375 65.3355 431.05 65.3355V65.4773ZM438.857 67.5739L438.773 67.6883C440.65 69.0625 441.744 70.9308 442.057 73.3027L442.197 73.2841L442.338 73.2655C442.015 70.8192 440.882 68.8807 438.94 67.4595L438.857 67.5739Z" fill="white"/>
<rect width="57" height="58" transform="matrix(-1 0 0 -1 526.5 104)" fill="white"/>
<g filter="url(#filter0_d_2_40)">
<path fill-rule="evenodd" clip-rule="evenodd" d="M526.5 46V104H469.5V46H526.5Z" fill="url(#paint1_linear_2_40)"/>
<path fill-rule="evenodd" clip-rule="evenodd" d="M526.5 46V104H469.5V46H526.5Z" stroke="#FCFCFC"/>
</g>
<path fill-rule="evenodd" clip-rule="evenodd" d="M474 51V99H522V51H474Z" fill="url(#paint2_linear_2_40)" stroke="white"/>
<path d="M486.734 60H479L491.603 80.199L495.613 74.4279L486.734 60Z" fill="white"/>
<path d="M517.668 60.2886L509.935 60L495.04 85.9701L497.905 90.5871L499.05 90.8756L517.668 60.2886Z" fill="white"/>
<defs>
<filter id="filter0_d_2_40" x="465.5" y="46" width="65" height="66" filterUnits="userSpaceOnUse" color-interpolation-filters="sRGB">
<feFlood flood-opacity="0" result="BackgroundImageFix"/>
<feColorMatrix in="SourceAlpha" type="matrix" values="0 0 0 0 0 0 0 0 0 0 0 0 0 0 0 0 0 0 127 0" result="hardAlpha"/>
<feOffset dy="4"/>
<feGaussianBlur stdDeviation="2"/>
<feComposite in2="hardAlpha" operator="out"/>
<feColorMatrix type="matrix" values="0 0 0 0 0 0 0 0 0 0 0 0 0 0 0 0 0 0 0.25 0"/>
<feBlend mode="normal" in2="BackgroundImageFix" result="effect1_dropShadow_2_40"/>
<feBlend mode="normal" in="SourceGraphic" in2="effect1_dropShadow_2_40" result="shape"/>
</filter>
<linearGradient id="paint0_linear_2_40" x1="261.5" y1="46" x2="261.5" y2="104" gradientUnits="userSpaceOnUse">
<stop stop-color="#1B023D"/>
<stop offset="1" stop-color="#533082"/>
</linearGradient>
<linearGradient id="paint1_linear_2_40" x1="498" y1="104" x2="498" y2="46" gradientUnits="userSpaceOnUse">
<stop stop-color="#1B023D"/>
<stop offset="1" stop-color="#533082"/>
</linearGradient>
<linearGradient id="paint2_linear_2_40" x1="498" y1="99" x2="498" y2="51" gradientUnits="userSpaceOnUse">
<stop stop-color="#1B023D"/>
<stop offset="1" stop-color="#533082"/>
</linearGradient>
</defs>
</svg>
